<?xml version="1.0" encoding="UTF-8"?>
<!-- Generated by jsxcad -->
<!DOCTYPE svg PUBLIC "-//W3C//DTD SVG 1.1 Tiny//EN" "http://www.w3.org/Graphics/SVG/1.1/DTD/svg11-tiny.dtd">
<svg viewBox="-250 -250 500 500" width="500" height="500" xmlns="http://www.w3.org/2000/svg"><path d="M-127.70300549891353,-24.695540665887435L-141.83897428344088,104.3228792911016L-123.25171669776414,-30.374131771572955zM-123.25171669776414,-30.374131771572955L-137.99688661234728,109.06878361452148L-118.54870856320156,-35.94390961154571zM-131.89155817564938,-18.917554591923597L-145.2664607831515,99.36658552321074L-127.70300549891353,-24.695540665887435zM-118.54870856320156,-35.94390961154571L-133.74313702954973,113.58701528286156L-113.60505814487254,-41.3958006451394zM-135.8064389886421,-13.049964530470575L-148.2778205179206,94.21721713390853L-131.89155817564938,-18.917554591923597zM-113.60505814487254,-41.3958006451394L-129.08214513586066,117.86040045657255L-108.43187994487702,-46.72106980930164zM-139.43682011751204,-7.102946613946022L-150.87285674644602,88.89207693019206L-135.8064389886421,-13.049964530470575zM-108.43187994487702,-46.72106980930164L-124.01988124175584,121.87202045030264L-103.04032665833981,-51.911302154384366zM-142.7719634007781,-1.087075279801524L-153.05261482959972,83.40832726018569L-139.43682011751204,-7.102946613946022zM-103.04032665833981,-51.911302154384366L-118.56396316663586,125.60525768337918L-97.44160041542686,-56.958375731805965zM-145.80128919333717,4.986660521353697L-154.8192504109352,77.78296565934949L-142.7719634007781,-1.087075279801524zM-97.44160041542686,-56.958375731805965L-112.72367327747578,129.0439148443674L-91.64691530280618,-61.854463266234895zM-148.51442051158693,11.10684455530007L-156.17603843569233,72.03275696677416L-145.80128919333717,4.986660521353697zM-91.64691530280618,-61.854463266234895L-106.5100464598808,132.17235004632226L-85.66752407939514,-66.59200207137971zM-150.9011387213765,17.261625250140302L-157.12720321428313,66.17419546205353L-148.51442051158693,11.10684455530007zM-85.66752407939514,-66.59200207137971L-99.93589172280593,134.97557904946254L-79.51471001558689,-71.16367585258955zM-152.95151030260493,23.438702228002438L-157.67788555576283,60.223426282414316L-150.9011387213765,17.261625250140302zM-79.51471001558689,-71.16367585258955L-93.01580625148112,137.43938539006226L-73.19977473261044,-75.56240478069465zM-154.65589821849633,29.625322109733336L-157.83400014184957,54.196256661221064L-152.95151030260493,23.438702228002438zM-73.19977473261044,-75.56240478069465L-85.76622750727802,139.55045952986117L-66.73407751711537,-79.78135196014127zM-66.73407751711537,-79.78135196014127L-78.20537607900577,141.2964970021752L-60.12902661113799,-83.81387506387712zM-156.00500753508948,35.80827738662829L-157.60224392042397,48.108080472041664L-154.65589821849633,29.625322109733336zM-60.12902661113799,-83.81387506387712L-70.35329615201066,142.6663586027485L-53.39606687542034,-87.65352753722534zM-53.39606687542034,-87.65352753722534L-62.231750262538014,143.65013508136494L-46.54672531560303,-91.29407197510557zM-157.60224392042397,48.108080472041664L-156.00500753508948,35.80827738662829L-156.98993284923054,41.973903294268524zM-46.54672531560303,-91.29407197510557L-53.864236292998214,144.23933443390126L-39.592599584727566,-94.7294346765857zM-154.65589821849633,29.625322109733336L-157.60224392042397,48.108080472041664L-157.83400014184957,54.196256661221064zM-39.592599584727566,-94.7294346765857L-45.27584912163387,144.42690690699433L-32.54537952090542,-97.9537230365739zM-32.54537952090542,-97.9537230365739L-36.493234078327774,144.20740896047016L-25.41686070436638,-100.96120128767006zM-152.95151030260493,23.438702228002438L-157.83400014184957,54.196256661221064L-157.67788555576283,60.223426282414316zM-25.41686070436638,-100.96120128767006L-27.54444279238505,143.5770716120277L-18.218953563647663,-103.74632222708613zM-150.9011387213765,17.261625250140302L-157.67788555576283,60.223426282414316L-157.12720321428313,66.17419546205353zM-18.218953563647663,-103.74632222708613L-18.458822890820468,142.53385767274872L-10.963699516137124,-106.30367133750094zM-148.51442051158693,11.10684455530007L-157.12720321428313,66.17419546205353L-156.17603843569233,72.03275696677416zM-10.963699516137124,-106.30367133750094L-9.266856347548897,141.07757217158874L-3.663287265888379,-108.62801333940472zM-145.80128919333717,4.986660521353697L-156.17603843569233,72.03275696677416L-154.8192504109352,77.78296565934949zM-3.663287265888379,-108.62801333940472L4.5879042200314425e-14,139.20987561367423L3.6699320584777504,-110.71427694382949zM3.6699320584777504,-110.71427694382949L9.309495571366934,136.934340764787L11.023434020701053,-112.55753376975566zM-142.7719634007781,-1.087075279801524L-154.8192504109352,77.78296565934949L-153.05261482959972,83.40832726018569zM11.023434020701053,-112.55753376975566L18.628779996917096,134.2564430009204L18.384502493767133,-114.15305627038627zM-139.43682011751204,-7.102946613946022L-153.05261482959972,83.40832726018569L-150.87285674644602,88.89207693019206zM18.384502493767133,-114.15305627038627L27.92460788943988,131.18358839487388L25.740220139694628,-115.49629112142743zM25.740220139694628,-115.49629112142743L37.16355181421161,127.72508211858816L33.077454118250465,-116.58285164895007zM-135.8064389886421,-13.049964530470575L-150.87285674644602,88.89207693019206L-148.2778205179206,94.21721713390853zM33.077454118250465,-116.58285164895007L46.31221563537275,123.89209709484699L40.38284525035137,-117.4085882021663zM-131.89155817564938,-18.917554591923597L-148.2778205179206,94.21721713390853L-145.2664607831515,99.36658552321074zM40.38284525035137,-117.4085882021663L55.337467576403185,119.69760645469997L47.64279328167671,-117.96954069068114zM47.64279328167671,-117.96954069068114L64.20664130788913,115.15629916694446L54.84345591473424,-118.26200919951616zM-127.70300549891353,-24.695540665887435L-145.2664607831515,99.36658552321074L-141.83897428344088,104.3228792911016zM54.84345591473424,-118.26200919951616L72.88778489262327,110.28453592687089L61.97073966044094,-118.28252626518906zM-123.25171669776414,-30.374131771572955L-141.83897428344088,104.3228792911016L-137.99688661234728,109.06878361452148zM61.97073966044094,-118.28252626518906L81.34982386280237,105.10016963093724L69.01028976319377,-118.0279281375105zM69.01028976319377,-118.0279281375105L89.56283137025551,99.62249063194199L75.94750709907773,-117.49531835558837zM-118.54870856320156,-35.94390961154571L-137.99688661234728,109.06878361452148L-133.74313702954973,113.58701528286156zM75.94750709907773,-117.49531835558837L97.49814047289935,93.87205060106712L82.76751850399361,-116.68217091181985zM-113.60505814487254,-41.3958006451394L-133.74313702954973,113.58701528286156L-129.08214513586066,117.86040045657255zM82.76751850399361,-116.68217091181985L105.12859442149232,87.87053729888393L89.45520150748946,-115.58630846501406zM89.45520150748946,-115.58630846501406L112.42864231760664,81.64059547167473L95.99520614085532,-114.20593166398677zM-108.43187994487702,-46.72106980930164L-129.08214513586066,117.86040045657255L-124.01988124175584,121.87202045030264zM95.99520614085532,-114.20593166398677L119.37453618713111,75.20570008317827L102.37193600768505,-112.5396903885909zM-103.04032665833981,-51.911302154384366L-124.01988124175584,121.87202045030264L-118.56396316663586,125.60525768337918zM102.37193600768505,-112.5396903885909L125.9444124217251,68.58995785534486L108.56958067967363,-110.58670394524806zM108.56958067967363,-110.58670394524806L132.1184033838214,61.817966368663L114.57214624332914,-108.34659169886949zM-97.44160041542686,-56.958375731805965L-118.56396316663586,125.60525768337918L-112.72367327747578,129.0439148443674zM114.57214624332914,-108.34659169886949L137.87874026590765,54.91462363390314L120.36345171992387,-105.81952183539197zM-91.64691530280618,-61.854463266234895L-112.72367327747578,129.0439148443674L-106.5100464598808,132.17235004632226zM120.36345171992387,-105.81952183539197L143.20976543361155,47.90497601661903L125.92719922008818,-103.00625969310526zM125.92719922008818,-103.00625969310526L148.09800976808674,40.814068412313915L131.24699370915968,-99.90822431211751zM-85.66752407939514,-66.59200207137971L-106.5100464598808,132.17235004632226L-99.93589172280593,134.97557904946254zM131.24699370915968,-99.90822431211751L152.53218744506427,33.66677020482745L136.30637138465033,-96.5274931075378zM136.30637138465033,-96.5274931075378L156.50318447034135,26.48764171511627L141.08886971622331,-92.86691389116328zM-79.51471001558689,-71.16367585258955L-99.93589172280593,134.97557904946254L-93.01580625148112,137.43938539006226zM141.08886971622331,-92.86691389116328L160.00404828879397,19.300798214386532L145.57807996965914,-88.93008054031402zM-73.19977473261044,-75.56240478069465L-93.01580625148112,137.43938539006226L-85.76622750727802,139.55045952986117zM145.57807996965914,-88.93008054031402L163.02994834012952,12.129788581262906L149.75772662413877,-84.72144015132093zM149.75772662413877,-84.72144015132093L165.57810793199513,4.997469313943976L153.61169061921194,-80.24631225065359zM-66.73407751711537,-79.78135196014127L-85.76622750727802,139.55045952986117L-78.20537607900577,141.2964970021752zM153.61169061921194,-80.24631225065359L167.64768600650854,-2.0740814597621497L157.12413088842612,-75.51093152278541zM-60.12902661113799,-83.81387506387712L-78.20537607900577,141.2964970021752L-70.35329615201066,142.6663586027485zM157.12413088842612,-75.51093152278541L169.2397937917908,-9.063658991126069L160.27958369351995,-70.52249830872627zM160.27958369351995,-70.52249830872627L170.35730921495008,-15.951007110801145L163.06297122384308,-65.28924069666147zM-53.39606687542034,-87.65352753722534L-70.35329615201066,142.6663586027485L-62.231750262538014,143.65013508136494zM163.06297122384308,-65.28924069666147L171.00482054661367,-22.716878832706556L165.45978414807908,-59.82039804494436zM-46.54672531560303,-91.29407197510557L-62.231750262538014,143.65013508136494L-53.864236292998214,144.23933443390126zM165.45978414807908,-59.82039804494436L171.18845639516027,-29.343084568845885L167.45615790730687,-54.126310580049946zM-39.592599584727566,-94.7294346765857L-53.864236292998214,144.23933443390126L-45.27584912163387,144.42690690699433zM167.45615790730687,-54.126310580049946L170.91585588782567,-35.81253263830592L169.03897306378036,-48.21841219971808zM-32.54537952090542,-97.9537230365739L-45.27584912163387,144.42690690699433L-36.493234078327774,144.20740896047016zM169.03897306378036,-48.21841219971808L170.91585588782567,-35.81253263830592L170.19596180561703,-42.109255100691676zM-25.41686070436638,-100.96120128767006L-36.493234078327774,144.20740896047016L-27.54444279238505,143.5770716120277zM167.45615790730687,-54.126310580049946L171.18845639516027,-29.343084568845885L170.91585588782567,-35.81253263830592zM-18.218953563647663,-103.74632222708613L-27.54444279238505,143.5770716120277L-18.458822890820468,142.53385767274872zM165.45978414807908,-59.82039804494436L171.00482054661367,-22.716878832706556L171.18845639516027,-29.343084568845885zM163.06297122384308,-65.28924069666147L170.35730921495008,-15.951007110801145L171.00482054661367,-22.716878832706556zM-10.963699516137124,-106.30367133750094L-18.458822890820468,142.53385767274872L-9.266856347548897,141.07757217158874zM160.27958369351995,-70.52249830872627L169.2397937917908,-9.063658991126069L170.35730921495008,-15.951007110801145zM-3.663287265888379,-108.62801333940472L-9.266856347548897,141.07757217158874L4.5879042200314425e-14,139.20987561367423zM157.12413088842612,-75.51093152278541L167.64768600650854,-2.0740814597621497L169.2397937917908,-9.063658991126069zM3.6699320584777504,-110.71427694382949L4.5879042200314425e-14,139.20987561367423L9.309495571366934,136.934340764787zM153.61169061921194,-80.24631225065359L165.57810793199513,4.997469313943976L167.64768600650854,-2.0740814597621497zM149.75772662413877,-84.72144015132093L163.02994834012952,12.129788581262906L165.57810793199513,4.997469313943976zM11.023434020701053,-112.55753376975566L9.309495571366934,136.934340764787L18.628779996917096,134.2564430009204zM145.57807996965914,-88.93008054031402L160.00404828879397,19.300798214386532L163.02994834012952,12.129788581262906zM18.384502493767133,-114.15305627038627L18.628779996917096,134.2564430009204L27.92460788943988,131.18358839487388zM141.08886971622331,-92.86691389116328L156.50318447034135,26.48764171511627L160.00404828879397,19.300798214386532zM25.740220139694628,-115.49629112142743L27.92460788943988,131.18358839487388L37.16355181421161,127.72508211858816zM136.30637138465033,-96.5274931075378L152.53218744506427,33.66677020482745L156.50318447034135,26.48764171511627zM33.077454118250465,-116.58285164895007L37.16355181421161,127.72508211858816L46.31221563537275,123.89209709484699zM131.24699370915968,-99.90822431211751L148.09800976808674,40.814068412313915L152.53218744506427,33.66677020482745zM40.38284525035137,-117.4085882021663L46.31221563537275,123.89209709484699L55.337467576403185,119.69760645469997zM125.92719922008818,-103.00625969310526L143.20976543361155,47.90497601661903L148.09800976808674,40.814068412313915zM47.64279328167671,-117.96954069068114L55.337467576403185,119.69760645469997L64.20664130788913,115.15629916694446zM120.36345171992387,-105.81952183539197L137.87874026590765,54.91462363390314L143.20976543361155,47.90497601661903zM54.84345591473424,-118.26200919951616L64.20664130788913,115.15629916694446L72.88778489262327,110.28453592687089zM114.57214624332914,-108.34659169886949L132.1184033838214,61.817966368663L137.87874026590765,54.91462363390314zM61.97073966044094,-118.28252626518906L72.88778489262327,110.28453592687089L81.34982386280237,105.10016963093724zM108.56958067967363,-110.58670394524806L125.9444124217251,68.58995785534486L132.1184033838214,61.817966368663zM69.01028976319377,-118.0279281375105L81.34982386280237,105.10016963093724L89.56283137025551,99.62249063194199zM102.37193600768505,-112.5396903885909L119.37453618713111,75.20570008317827L125.9444124217251,68.58995785534486zM95.99520614085532,-114.20593166398677L112.42864231760664,81.64059547167473L119.37453618713111,75.20570008317827zM75.94750709907773,-117.49531835558837L89.56283137025551,99.62249063194199L97.49814047289935,93.87205060106712zM89.45520150748946,-115.58630846501406L105.12859442149232,87.87053729888393L112.42864231760664,81.64059547167473zM82.76751850399361,-116.68217091181985L97.49814047289935,93.87205060106712L105.12859442149232,87.87053729888393z" style="fill:rgb(83,212,212)"/></svg>
