<?xml version="1.0" encoding="UTF-8"?>
<!-- Generated by jsxcad -->
<!DOCTYPE svg PUBLIC "-//W3C//DTD SVG 1.1 Tiny//EN" "http://www.w3.org/Graphics/SVG/1.1/DTD/svg11-tiny.dtd">
<svg viewBox="-250 -250 500 500" width="500" height="500" xmlns="http://www.w3.org/2000/svg"><path d="M-134.68811740041076,-15.236434040395592L-142.55496609998994,103.33104667437867L-116.91900646486759,-38.191966152737145zM-116.91900646486759,-38.191966152737145L-124.81661863536348,121.17562417009282L-95.29978383692092,-59.18572924871757zM-147.8873615385251,9.057131776394396L-153.5685568598671,82.10942938114385L-134.68811740041076,-15.236434040395592zM-95.29978383692092,-59.18572924871757L-100.68756566530898,134.5335818228532L-70.56393303618083,-77.68091429221418zM-157.88965403229446,58.632208310015805L-147.8873615385251,9.057131776394396L-155.828529830806,33.9611688942578zM-70.56393303618083,-77.68091429221418L-70.94023019310565,142.40836449889449L-43.454012520246515,-93.21044384028171zM-43.454012520246515,-93.21044384028171L-36.81727218186025,144.03837831369674L-14.726852098428232,-105.36261992935945zM-147.8873615385251,9.057131776394396L-157.88965403229446,58.632208310015805L-153.5685568598671,82.10942938114385zM-14.726852098428232,-105.36261992935945L4.200508783366099e-14,139.01994840255801L14.834832138095159,-113.77187523811799zM14.834832138095159,-113.77187523811799L37.49965821754464,127.40385010282978L44.407774583960176,-118.1166700733645zM-134.68811740041076,-15.236434040395592L-153.5685568598671,82.10942938114385L-142.55496609998994,103.33104667437867zM44.407774583960176,-118.1166700733645L73.51795866897773,109.73720233071487L73.11389564877722,-118.12585686276535zM-116.91900646486759,-38.191966152737145L-142.55496609998994,103.33104667437867L-124.81661863536348,121.17562417009282zM73.11389564877722,-118.12585686276535L105.96073791610945,87.03252907720918L100.0105197319945,-113.59504787605867zM100.0105197319945,-113.59504787605867L133.0229716010234,60.66461660539275L124.08989043631284,-104.4137407371623zM-95.29978383692092,-59.18572924871757L-124.81661863536348,121.17562417009282L-100.68756566530898,134.5335818228532zM124.08989043631284,-104.4137407371623L153.36052145229164,32.21605234633848L144.29379730136603,-90.60307589259497zM-70.56393303618083,-77.68091429221418L-100.68756566530898,134.5335818228532L-70.94023019310565,142.40836449889449zM144.29379730136603,-90.60307589259497L166.18211826333848,3.3058562567419005L159.5494840120965,-72.36201428105588zM159.5494840120965,-72.36201428105588L171.2539286203813,-24.563610979704244L168.83179257502695,-50.116658426132794zM-43.454012520246515,-93.21044384028171L-70.94023019310565,142.40836449889449L-36.81727218186025,144.03837831369674zM-14.726852098428232,-105.36261992935945L-36.81727218186025,144.03837831369674L4.200508783366099e-14,139.01994840255801zM159.5494840120965,-72.36201428105588L166.18211826333848,3.3058562567419005L171.2539286203813,-24.563610979704244zM14.834832138095159,-113.77187523811799L4.200508783366099e-14,139.01994840255801L37.49965821754464,127.40385010282978zM144.29379730136603,-90.60307589259497L153.36052145229164,32.21605234633848L166.18211826333848,3.3058562567419005zM44.407774583960176,-118.1166700733645L37.49965821754464,127.40385010282978L73.51795866897773,109.73720233071487zM124.08989043631284,-104.4137407371623L133.0229716010234,60.66461660539275L153.36052145229164,32.21605234633848zM100.0105197319945,-113.59504787605867L105.96073791610945,87.03252907720918L133.0229716010234,60.66461660539275zM73.11389564877722,-118.12585686276535L73.51795866897773,109.73720233071487L105.96073791610945,87.03252907720918z" style="fill:rgb(83,212,212)"/></svg>
